<svg width="210" height="106" viewBox="0 0 210 106" fill="none" xmlns="http://www.w3.org/2000/svg">
<g filter="url(#filter0_dd_33_101)">
<rect x="25" y="25" width="160" height="56" rx="28" fill="#F0F0F3"/>
</g>
<path d="M81.3566 58.098C80.7126 58.098 80.1339 57.986 79.6206 57.762C79.1166 57.5287 78.7199 57.2113 78.4306 56.81C78.1412 56.3993 77.9919 55.928 77.9826 55.396H79.3406C79.3872 55.8533 79.5739 56.2407 79.9006 56.558C80.2366 56.866 80.7219 57.02 81.3566 57.02C81.9632 57.02 82.4392 56.8707 82.7846 56.572C83.1392 56.264 83.3166 55.872 83.3166 55.396C83.3166 55.0227 83.2139 54.7193 83.0086 54.486C82.8032 54.2527 82.5466 54.0753 82.2386 53.954C81.9306 53.8327 81.5152 53.702 80.9926 53.562C80.3486 53.394 79.8306 53.226 79.4386 53.058C79.0559 52.89 78.7246 52.6287 78.4446 52.274C78.1739 51.91 78.0386 51.4247 78.0386 50.818C78.0386 50.286 78.1739 49.8147 78.4446 49.404C78.7152 48.9933 79.0932 48.676 79.5786 48.452C80.0732 48.228 80.6379 48.116 81.2726 48.116C82.1872 48.116 82.9339 48.3447 83.5126 48.802C84.1006 49.2593 84.4319 49.866 84.5066 50.622H83.1066C83.0599 50.2487 82.8639 49.922 82.5186 49.642C82.1732 49.3527 81.7159 49.208 81.1466 49.208C80.6146 49.208 80.1806 49.348 79.8446 49.628C79.5086 49.8987 79.3406 50.2813 79.3406 50.776C79.3406 51.1307 79.4386 51.42 79.6346 51.644C79.8399 51.868 80.0872 52.0407 80.3766 52.162C80.6752 52.274 81.0906 52.4047 81.6226 52.554C82.2666 52.7313 82.7846 52.9087 83.1766 53.086C83.5686 53.254 83.9046 53.52 84.1846 53.884C84.4646 54.2387 84.6046 54.724 84.6046 55.34C84.6046 55.816 84.4786 56.264 84.2266 56.684C83.9746 57.104 83.6012 57.4447 83.1066 57.706C82.6119 57.9673 82.0286 58.098 81.3566 58.098ZM93.2834 50.328V58H92.0094V56.866C91.7667 57.258 91.426 57.566 90.9874 57.79C90.558 58.0047 90.082 58.112 89.5594 58.112C88.962 58.112 88.4254 57.9907 87.9494 57.748C87.4734 57.496 87.0954 57.1227 86.8154 56.628C86.5447 56.1333 86.4094 55.5313 86.4094 54.822V50.328H87.6694V54.654C87.6694 55.41 87.8607 55.9933 88.2434 56.404C88.626 56.8053 89.1487 57.006 89.8114 57.006C90.4927 57.006 91.0294 56.796 91.4214 56.376C91.8134 55.956 92.0094 55.3447 92.0094 54.542V50.328H93.2834ZM96.7084 51.742C96.9604 51.3033 97.3338 50.9393 97.8284 50.65C98.3324 50.3513 98.9158 50.202 99.5784 50.202C100.26 50.202 100.876 50.3653 101.426 50.692C101.986 51.0187 102.425 51.4807 102.742 52.078C103.06 52.666 103.218 53.352 103.218 54.136C103.218 54.9107 103.06 55.6013 102.742 56.208C102.425 56.8147 101.986 57.286 101.426 57.622C100.876 57.958 100.26 58.126 99.5784 58.126C98.9251 58.126 98.3464 57.9813 97.8424 57.692C97.3478 57.3933 96.9698 57.0247 96.7084 56.586V61.64H95.4344V50.328H96.7084V51.742ZM101.916 54.136C101.916 53.5573 101.8 53.0533 101.566 52.624C101.333 52.1947 101.016 51.868 100.614 51.644C100.222 51.42 99.7884 51.308 99.3124 51.308C98.8458 51.308 98.4118 51.4247 98.0104 51.658C97.6184 51.882 97.3011 52.2133 97.0584 52.652C96.8251 53.0813 96.7084 53.5807 96.7084 54.15C96.7084 54.7287 96.8251 55.2373 97.0584 55.676C97.3011 56.1053 97.6184 56.4367 98.0104 56.67C98.4118 56.894 98.8458 57.006 99.3124 57.006C99.7884 57.006 100.222 56.894 100.614 56.67C101.016 56.4367 101.333 56.1053 101.566 55.676C101.8 55.2373 101.916 54.724 101.916 54.136ZM111.895 53.87C111.895 54.1127 111.881 54.3693 111.853 54.64H105.721C105.768 55.396 106.025 55.9887 106.491 56.418C106.967 56.838 107.541 57.048 108.213 57.048C108.764 57.048 109.221 56.922 109.585 56.67C109.959 56.4087 110.22 56.0633 110.369 55.634H111.741C111.536 56.3713 111.125 56.9733 110.509 57.44C109.893 57.8973 109.128 58.126 108.213 58.126C107.485 58.126 106.832 57.9627 106.253 57.636C105.684 57.3093 105.236 56.8473 104.909 56.25C104.583 55.6433 104.419 54.9433 104.419 54.15C104.419 53.3567 104.578 52.6613 104.895 52.064C105.213 51.4667 105.656 51.0093 106.225 50.692C106.804 50.3653 107.467 50.202 108.213 50.202C108.941 50.202 109.585 50.3607 110.145 50.678C110.705 50.9953 111.135 51.434 111.433 51.994C111.741 52.5447 111.895 53.17 111.895 53.87ZM110.579 53.604C110.579 53.1187 110.472 52.7033 110.257 52.358C110.043 52.0033 109.749 51.7373 109.375 51.56C109.011 51.3733 108.605 51.28 108.157 51.28C107.513 51.28 106.963 51.4853 106.505 51.896C106.057 52.3067 105.801 52.876 105.735 53.604H110.579ZM114.851 51.574C115.075 51.1353 115.392 50.7947 115.803 50.552C116.223 50.3093 116.732 50.188 117.329 50.188V51.504H116.993C115.565 51.504 114.851 52.2787 114.851 53.828V58H113.577V50.328H114.851V51.574ZM128.026 50.188C128.623 50.188 129.155 50.314 129.622 50.566C130.088 50.8087 130.457 51.1773 130.728 51.672C130.998 52.1667 131.134 52.7687 131.134 53.478V58H129.874V53.66C129.874 52.8947 129.682 52.3113 129.3 51.91C128.926 51.4993 128.418 51.294 127.774 51.294C127.111 51.294 126.584 51.5087 126.192 51.938C125.8 52.358 125.604 52.9693 125.604 53.772V58H124.344V53.66C124.344 52.8947 124.152 52.3113 123.77 51.91C123.396 51.4993 122.888 51.294 122.244 51.294C121.581 51.294 121.054 51.5087 120.662 51.938C120.27 52.358 120.074 52.9693 120.074 53.772V58H118.8V50.328H120.074V51.434C120.326 51.0327 120.662 50.7247 121.082 50.51C121.511 50.2953 121.982 50.188 122.496 50.188C123.14 50.188 123.709 50.3327 124.204 50.622C124.698 50.9113 125.067 51.336 125.31 51.896C125.524 51.3547 125.879 50.9347 126.374 50.636C126.868 50.3373 127.419 50.188 128.026 50.188ZM132.748 54.136C132.748 53.352 132.906 52.666 133.224 52.078C133.541 51.4807 133.975 51.0187 134.526 50.692C135.086 50.3653 135.706 50.202 136.388 50.202C137.06 50.202 137.643 50.3467 138.138 50.636C138.632 50.9253 139.001 51.2893 139.244 51.728V50.328H140.532V58H139.244V56.572C138.992 57.02 138.614 57.3933 138.11 57.692C137.615 57.9813 137.036 58.126 136.374 58.126C135.692 58.126 135.076 57.958 134.526 57.622C133.975 57.286 133.541 56.8147 133.224 56.208C132.906 55.6013 132.748 54.9107 132.748 54.136ZM139.244 54.15C139.244 53.5713 139.127 53.0673 138.894 52.638C138.66 52.2087 138.343 51.882 137.942 51.658C137.55 51.4247 137.116 51.308 136.64 51.308C136.164 51.308 135.73 51.42 135.338 51.644C134.946 51.868 134.633 52.1947 134.4 52.624C134.166 53.0533 134.05 53.5573 134.05 54.136C134.05 54.724 134.166 55.2373 134.4 55.676C134.633 56.1053 134.946 56.4367 135.338 56.67C135.73 56.894 136.164 57.006 136.64 57.006C137.116 57.006 137.55 56.894 137.942 56.67C138.343 56.4367 138.66 56.1053 138.894 55.676C139.127 55.2373 139.244 54.7287 139.244 54.15ZM143.958 51.574C144.182 51.1353 144.5 50.7947 144.91 50.552C145.33 50.3093 145.839 50.188 146.436 50.188V51.504H146.1C144.672 51.504 143.958 52.2787 143.958 53.828V58H142.684V50.328H143.958V51.574ZM152.191 58L149.181 54.612V58H147.907V47.64H149.181V53.73L152.135 50.328H153.913L150.301 54.15L153.927 58H152.191ZM162.112 53.87C162.112 54.1127 162.098 54.3693 162.07 54.64H155.938C155.985 55.396 156.242 55.9887 156.708 56.418C157.184 56.838 157.758 57.048 158.43 57.048C158.981 57.048 159.438 56.922 159.802 56.67C160.176 56.4087 160.437 56.0633 160.586 55.634H161.958C161.753 56.3713 161.342 56.9733 160.726 57.44C160.11 57.8973 159.345 58.126 158.43 58.126C157.702 58.126 157.049 57.9627 156.47 57.636C155.901 57.3093 155.453 56.8473 155.126 56.25C154.8 55.6433 154.636 54.9433 154.636 54.15C154.636 53.3567 154.795 52.6613 155.112 52.064C155.43 51.4667 155.873 51.0093 156.442 50.692C157.021 50.3653 157.684 50.202 158.43 50.202C159.158 50.202 159.802 50.3607 160.362 50.678C160.922 50.9953 161.352 51.434 161.65 51.994C161.958 52.5447 162.112 53.17 162.112 53.87ZM160.796 53.604C160.796 53.1187 160.689 52.7033 160.474 52.358C160.26 52.0033 159.966 51.7373 159.592 51.56C159.228 51.3733 158.822 51.28 158.374 51.28C157.73 51.28 157.18 51.4853 156.722 51.896C156.274 52.3067 156.018 52.876 155.952 53.604H160.796ZM165.348 51.378V55.9C165.348 56.2733 165.427 56.5393 165.586 56.698C165.744 56.8473 166.02 56.922 166.412 56.922H167.35V58H166.202C165.492 58 164.96 57.8367 164.606 57.51C164.251 57.1833 164.074 56.6467 164.074 55.9V51.378H163.08V50.328H164.074V48.396H165.348V50.328H167.35V51.378H165.348Z" fill="#00754A"/>
<path d="M53 57.6667C52.2667 57.6667 51.6733 58.2667 51.6733 59C51.6733 59.7333 52.2667 60.3333 53 60.3333C53.7333 60.3333 54.3333 59.7333 54.3333 59C54.3333 58.2667 53.7333 57.6667 53 57.6667ZM49 47V48.3333H50.3333L52.7333 53.3933L51.8333 55.0267C51.7267 55.2133 51.6667 55.4333 51.6667 55.6667C51.6667 56.4 52.2667 57 53 57H61V55.6667H53.28C53.1867 55.6667 53.1133 55.5933 53.1133 55.5L53.1333 55.42L53.7333 54.3333H58.7C59.2 54.3333 59.64 54.06 59.8667 53.6467L62.2533 49.32C62.3067 49.2267 62.3333 49.1133 62.3333 49C62.3333 48.6333 62.0333 48.3333 61.6667 48.3333H51.8067L51.18 47H49ZM59.6667 57.6667C58.9333 57.6667 58.34 58.2667 58.34 59C58.34 59.7333 58.9333 60.3333 59.6667 60.3333C60.4 60.3333 61 59.7333 61 59C61 58.2667 60.4 57.6667 59.6667 57.6667Z" fill="#00754A"/>
<defs>
<filter id="filter0_dd_33_101" x="0" y="0" width="210" height="106" filterUnits="userSpaceOnUse" color-interpolation-filters="sRGB">
<feFlood flood-opacity="0" result="BackgroundImageFix"/>
<feColorMatrix in="SourceAlpha" type="matrix" values="0 0 0 0 0 0 0 0 0 0 0 0 0 0 0 0 0 0 127 0" result="hardAlpha"/>
<feOffset dx="5" dy="5"/>
<feGaussianBlur stdDeviation="10"/>
<feColorMatrix type="matrix" values="0 0 0 0 0.682353 0 0 0 0 0.682353 0 0 0 0 0.752941 0 0 0 0.5 0"/>
<feBlend mode="normal" in2="BackgroundImageFix" result="effect1_dropShadow_33_101"/>
<feColorMatrix in="SourceAlpha" type="matrix" values="0 0 0 0 0 0 0 0 0 0 0 0 0 0 0 0 0 0 127 0" result="hardAlpha"/>
<feOffset dx="-5" dy="-5"/>
<feGaussianBlur stdDeviation="10"/>
<feColorMatrix type="matrix" values="0 0 0 0 1 0 0 0 0 1 0 0 0 0 1 0 0 0 1 0"/>
<feBlend mode="normal" in2="effect1_dropShadow_33_101" result="effect2_dropShadow_33_101"/>
<feBlend mode="normal" in="SourceGraphic" in2="effect2_dropShadow_33_101" result="shape"/>
</filter>
</defs>
</svg>
